# Blender v2.92.0 OBJ File: ''
# www.blender.org
mtllib XYZ_Blocks.mtl
o textz
v -0.274968 0.256367 1.668144
v 0.302564 0.342800 1.668144
v -0.274968 0.342800 1.668144
v 0.124786 0.256367 1.668144
v -0.123709 -0.240625 1.668144
v -0.301487 -0.327058 1.668144
v 0.302564 -0.240625 1.668144
v 0.302564 -0.327058 1.668144
v 0.302564 0.342800 1.471704
v -0.274968 0.256367 1.471704
v -0.274968 0.342800 1.471704
v 0.124786 0.256367 1.471704
v -0.123709 -0.240625 1.471704
v -0.301487 -0.327058 1.471704
v 0.302564 -0.240625 1.471704
v 0.302564 -0.327058 1.471704
v -0.274968 0.342800 1.668144
v 0.302564 0.342800 1.668144
v 0.302564 0.342800 1.471704
v -0.274968 0.342800 1.471704
v -0.123709 -0.240625 1.668144
v -0.123709 -0.240625 1.471704
v 0.302564 -0.240625 1.668144
v 0.302564 -0.240625 1.471704
v 0.302564 -0.327058 1.668144
v 0.302564 -0.327058 1.471704
v -0.301487 -0.327058 1.668144
v -0.301487 -0.327058 1.471704
v 0.124786 0.256367 1.668144
v 0.124786 0.256367 1.471704
v -0.274968 0.256367 1.668144
v -0.274968 0.256367 1.471704
vt 0.635769 0.677848
vt 0.635769 0.677848
vt 0.635769 0.677848
vt 0.635769 0.677848
vt 0.635769 0.677848
vt 0.635769 0.677848
vt 0.635769 0.677848
vt 0.635769 0.677848
vt 0.635769 0.677848
vt 0.635769 0.677848
vt 0.635769 0.677848
vt 0.635769 0.677848
vt 0.635769 0.677848
vt 0.635769 0.677848
vt 0.635769 0.677848
vt 0.635769 0.677848
vt 0.635769 0.677848
vt 0.635769 0.677848
vt 0.635769 0.677848
vt 0.635769 0.677848
vt 0.635769 0.677848
vt 0.635769 0.677848
vt 0.635769 0.677848
vt 0.635769 0.677848
vt 0.635769 0.677848
vt 0.635769 0.677848
vt 0.635769 0.677848
vt 0.635769 0.677848
vt 0.635769 0.677848
vt 0.635769 0.677848
vt 0.635769 0.677848
vt 0.635769 0.677848
vn 0.0000 0.0000 1.0000
vn 0.0000 0.0000 -1.0000
vn -0.7071 0.7071 0.0000
vn 0.8916 0.4528 0.0000
vn 0.7071 0.7071 0.0000
vn 0.7071 -0.7071 -0.0000
vn -0.8916 -0.4528 -0.0000
vn -0.7071 -0.7071 -0.0000
usemtl Z_text_blue
s off
f 1/1/1 2/2/1 3/3/1
f 1/1/1 4/4/1 2/2/1
f 4/4/1 5/5/1 2/2/1
f 6/6/1 5/5/1 4/4/1
f 6/6/1 7/7/1 5/5/1
f 6/6/1 8/8/1 7/7/1
f 9/9/2 10/10/2 11/11/2
f 12/12/2 10/10/2 9/9/2
f 13/13/2 12/12/2 9/9/2
f 13/13/2 14/14/2 12/12/2
f 15/15/2 14/14/2 13/13/2
f 16/16/2 14/14/2 15/15/2
s 1
f 17/17/3 18/18/4 19/19/4 20/20/3
f 18/18/4 21/21/4 22/22/4 19/19/4
f 21/21/4 23/23/5 24/24/5 22/22/4
f 23/23/5 25/25/6 26/26/6 24/24/5
f 25/25/6 27/27/7 28/28/7 26/26/6
f 27/27/7 29/29/7 30/30/7 28/28/7
f 29/29/7 31/31/8 32/32/8 30/30/7
f 31/31/8 17/17/3 20/20/3 32/32/8
o texty
v 0.052737 1.490915 0.028705
v 0.185333 1.490915 0.343991
v 0.301233 1.490915 0.343991
v 0.005591 1.490915 0.113174
v -0.292014 1.490915 0.343991
v -0.176115 1.490915 0.343991
v -0.043519 1.490915 0.027723
v 0.052737 1.490915 -0.325868
v -0.043519 1.490915 -0.325868
v 0.185333 1.726642 0.343991
v 0.052737 1.726642 0.028705
v 0.301233 1.726642 0.343991
v 0.005591 1.726642 0.113174
v -0.292014 1.726642 0.343991
v -0.176115 1.726642 0.343991
v -0.043519 1.726642 0.027723
v 0.052737 1.726642 -0.325868
v -0.043519 1.726642 -0.325868
v -0.292014 1.490915 0.343991
v -0.043519 1.490915 0.027723
v -0.043519 1.726642 0.027723
v -0.292014 1.726642 0.343991
v -0.043519 1.490915 -0.325868
v -0.043519 1.726642 -0.325868
v 0.052737 1.490915 -0.325868
v 0.052737 1.726642 -0.325868
v 0.052737 1.490915 0.028705
v 0.052737 1.726642 0.028705
v 0.301233 1.490915 0.343991
v 0.301233 1.726642 0.343991
v 0.185333 1.490915 0.343991
v 0.185333 1.726642 0.343991
v 0.005591 1.490915 0.113174
v 0.005591 1.726642 0.113174
v -0.176115 1.490915 0.343991
v -0.176115 1.726642 0.343991
vt 0.635769 0.677848
vt 0.635769 0.677848
vt 0.635769 0.677848
vt 0.635769 0.677848
vt 0.635769 0.677848
vt 0.635769 0.677848
vt 0.635769 0.677848
vt 0.635769 0.677848
vt 0.635769 0.677848
vt 0.635769 0.677848
vt 0.635769 0.677848
vt 0.635769 0.677848
vt 0.635769 0.677848
vt 0.635769 0.677848
vt 0.635769 0.677848
vt 0.635769 0.677848
vt 0.635769 0.677848
vt 0.635769 0.677848
vt 0.635769 0.677848
vt 0.635769 0.677848
vt 0.635769 0.677848
vt 0.635769 0.677848
vt 0.635769 0.677848
vt 0.635769 0.677848
vt 0.635769 0.677848
vt 0.635769 0.677848
vt 0.635769 0.677848
vt 0.635769 0.677848
vt 0.635769 0.677848
vt 0.635769 0.677848
vt 0.635769 0.677848
vt 0.635769 0.677848
vt 0.635769 0.677848
vt 0.635769 0.677848
vt 0.635769 0.677848
vt 0.635769 0.677848
vn 0.0000 -1.0000 0.0000
vn 0.0000 1.0000 0.0000
vn -0.8994 -0.0000 0.4371
vn -0.9451 0.0000 -0.3269
vn -0.7071 0.0000 -0.7071
vn 0.7071 0.0000 -0.7071
vn 0.9448 0.0000 -0.3276
vn 0.8997 -0.0000 0.4365
vn -0.4391 -0.0000 0.8984
vn -0.0026 -0.0000 1.0000
vn 0.4367 -0.0000 0.8996
usemtl Y_axis_green
s off
f 33/33/9 35/34/9 34/35/9
f 33/33/9 34/35/9 36/36/9
f 36/36/9 38/37/9 37/38/9
f 36/36/9 37/38/9 39/39/9
f 33/33/9 36/36/9 39/39/9
f 40/40/9 33/33/9 39/39/9
f 40/40/9 39/39/9 41/41/9
f 42/42/10 44/43/10 43/44/10
f 45/45/10 42/42/10 43/44/10
f 46/46/10 47/47/10 45/45/10
f 48/48/10 46/46/10 45/45/10
f 48/48/10 45/45/10 43/44/10
f 48/48/10 43/44/10 49/49/10
f 50/50/10 48/48/10 49/49/10
s 1
f 51/51/11 54/52/11 53/53/12 52/54/12
f 52/54/12 53/53/12 56/55/13 55/56/13
f 55/56/13 56/55/13 58/57/14 57/58/14
f 57/58/14 58/57/14 60/59/15 59/60/15
f 59/60/15 60/59/15 62/61/16 61/62/16
f 61/62/16 62/61/16 64/63/17 63/64/17
f 63/64/17 64/63/17 66/65/18 65/66/18
f 65/66/18 66/65/18 68/67/19 67/68/19
f 67/68/19 68/67/19 54/52/11 51/51/11
o textx
v 1.665090 -0.044768 0.003360
v 1.665090 -0.196027 0.326503
v 1.665090 -0.312908 0.326503
v 1.665090 0.014163 0.071131
v 1.665090 0.339271 0.326503
v 1.665090 0.223371 0.326503
v 1.665090 0.072113 0.003360
v 1.665090 -0.333534 -0.343356
v 1.665090 0.014163 -0.066376
v 1.665090 0.357932 -0.343356
v 1.665090 -0.216653 -0.343356
v 1.665090 0.242033 -0.343356
v 1.468651 -0.196027 0.326503
v 1.468651 -0.044768 0.003360
v 1.468651 -0.312908 0.326503
v 1.468651 0.014163 0.071131
v 1.468651 0.339271 0.326503
v 1.468651 0.223371 0.326503
v 1.468651 0.072113 0.003360
v 1.468651 -0.333534 -0.343356
v 1.468651 0.014163 -0.066376
v 1.468651 0.357932 -0.343356
v 1.468651 -0.216653 -0.343356
v 1.468651 0.242033 -0.343356
v 1.665090 0.357932 -0.343356
v 1.665090 0.242033 -0.343356
v 1.468651 0.242033 -0.343356
v 1.468651 0.357932 -0.343356
v 1.665090 0.014163 -0.066376
v 1.468651 0.014163 -0.066376
v 1.665090 -0.216653 -0.343356
v 1.468651 -0.216653 -0.343356
v 1.665090 -0.333534 -0.343356
v 1.468651 -0.333534 -0.343356
v 1.665090 -0.044768 0.003360
v 1.468651 -0.044768 0.003360
v 1.665090 -0.312908 0.326503
v 1.468651 -0.312908 0.326503
v 1.665090 -0.196027 0.326503
v 1.468651 -0.196027 0.326503
v 1.665090 0.014163 0.071131
v 1.468651 0.014163 0.071131
v 1.665090 0.223371 0.326503
v 1.468651 0.223371 0.326503
v 1.665090 0.339271 0.326503
v 1.468651 0.339271 0.326503
v 1.665090 0.072113 0.003360
v 1.468651 0.072113 0.003360
vt 0.635769 0.677848
vt 0.635769 0.677848
vt 0.635769 0.677848
vt 0.635769 0.677848
vt 0.635769 0.677848
vt 0.635769 0.677848
vt 0.635769 0.677848
vt 0.635769 0.677848
vt 0.635769 0.677848
vt 0.635769 0.677848
vt 0.635769 0.677848
vt 0.635769 0.677848
vt 0.635769 0.677848
vt 0.635769 0.677848
vt 0.635769 0.677848
vt 0.635769 0.677848
vt 0.635769 0.677848
vt 0.635769 0.677848
vt 0.635769 0.677848
vt 0.635769 0.677848
vt 0.635769 0.677848
vt 0.635769 0.677848
vt 0.635769 0.677848
vt 0.635769 0.677848
vt 0.635769 0.677848
vt 0.635769 0.677848
vt 0.635769 0.677848
vt 0.635769 0.677848
vt 0.635769 0.677848
vt 0.635769 0.677848
vt 0.635769 0.677848
vt 0.635769 0.677848
vt 0.635769 0.677848
vt 0.635769 0.677848
vt 0.635769 0.677848
vt 0.635769 0.677848
vt 0.635769 0.677848
vt 0.635769 0.677848
vt 0.635769 0.677848
vt 0.635769 0.677848
vt 0.635769 0.677848
vt 0.635769 0.677848
vt 0.635769 0.677848
vt 0.635769 0.677848
vt 0.635769 0.677848
vt 0.635769 0.677848
vt 0.635769 0.677848
vt 0.635769 0.677848
vn 1.0000 -0.0000 0.0000
vn -1.0000 0.0000 0.0000
vn 0.0000 0.9045 -0.4266
vn 0.0000 -0.4270 -0.9042
vn 0.0000 -0.0032 -1.0000
vn 0.0000 0.4242 -0.9056
vn 0.0000 -0.9055 -0.4243
vn 0.0000 -1.0000 0.0009
vn 0.0000 -0.9051 0.4251
vn 0.0000 0.4269 0.9043
vn 0.0000 -0.0011 1.0000
vn 0.0000 -0.4279 0.9038
vn 0.0000 0.9048 0.4259
vn 0.0000 1.0000 -0.0007
usemtl X_axis_red
s off
f 69/69/20 70/70/20 71/71/20
f 69/69/20 72/72/20 70/70/20
f 72/72/20 73/73/20 74/74/20
f 72/72/20 75/75/20 73/73/20
f 69/69/20 75/75/20 72/72/20
f 76/76/20 75/75/20 69/69/20
f 76/76/20 77/77/20 75/75/20
f 77/77/20 78/78/20 75/75/20
f 76/76/20 79/79/20 77/77/20
f 80/80/20 78/78/20 77/77/20
f 81/81/21 82/82/21 83/83/21
f 84/84/21 82/82/21 81/81/21
f 85/85/21 84/84/21 86/86/21
f 87/87/21 84/84/21 85/85/21
f 87/87/21 82/82/21 84/84/21
f 87/87/21 88/88/21 82/82/21
f 89/89/21 88/88/21 87/87/21
f 90/90/21 89/89/21 87/87/21
f 91/91/21 88/88/21 89/89/21
f 90/90/21 92/92/21 89/89/21
s 1
f 93/93/22 94/94/23 95/95/23 96/96/22
f 94/94/23 97/97/24 98/98/24 95/95/23
f 97/97/24 99/99/25 100/100/25 98/98/24
f 99/99/25 101/101/26 102/102/26 100/100/25
f 101/101/26 103/103/27 104/104/27 102/102/26
f 103/103/27 105/105/28 106/106/28 104/104/27
f 105/105/28 107/107/29 108/108/29 106/106/28
f 107/107/29 109/109/30 110/110/30 108/108/29
f 109/109/30 111/111/31 112/112/31 110/110/30
f 111/111/31 113/113/32 114/114/32 112/112/31
f 113/113/32 115/115/33 116/116/33 114/114/32
f 115/115/33 93/93/22 96/96/22 116/116/33
o cubey
v 0.453192 1.482678 0.460351
v 0.453191 1.482678 -0.465482
v -0.472642 1.482678 -0.465482
v -0.472642 1.482678 0.460351
v 0.453191 0.500481 -0.465482
v 0.453191 0.500481 0.460351
v -0.472642 0.500481 0.460351
v -0.472642 0.500481 -0.465482
v -0.500824 0.528663 -0.465482
v -0.500824 0.528663 0.460351
v -0.500824 1.454496 0.460351
v -0.500824 1.454496 -0.465482
v 0.453192 1.454496 0.488533
v -0.472642 1.454496 0.488533
v -0.472642 0.528663 0.488533
v 0.453191 0.528663 0.488533
v 0.481373 1.454496 -0.465482
v 0.481373 1.454496 0.460351
v 0.481373 0.528663 0.460351
v 0.481373 0.528663 -0.465482
v 0.473119 1.474424 -0.465482
v 0.471507 1.472812 -0.483798
v 0.453191 1.474424 -0.485410
v 0.473119 1.454496 -0.485410
v 0.453191 1.454496 -0.493664
v 0.453191 0.528663 -0.493664
v 0.473119 0.528663 -0.485410
v 0.471507 0.510347 -0.483798
v 0.453191 0.508735 -0.485410
v 0.473119 0.508735 -0.465482
v -0.472642 0.528663 -0.493664
v -0.472642 0.508735 -0.485410
v -0.490958 0.510347 -0.483798
v -0.492570 0.528663 -0.485410
v -0.492570 0.508735 -0.465482
v -0.492570 1.474424 -0.465482
v -0.490958 1.472812 -0.483798
v -0.492570 1.454497 -0.485410
v -0.472642 1.474424 -0.485410
v -0.472642 1.454496 -0.493664
v 0.473119 1.474424 0.460351
v 0.471507 1.472812 0.478667
v 0.473119 1.454496 0.480279
v 0.453192 1.474424 0.480279
v 0.453191 0.508735 0.480279
v 0.471507 0.510347 0.478667
v 0.473119 0.528663 0.480279
v 0.473119 0.508735 0.460351
v -0.492570 0.528663 0.480279
v -0.490958 0.510347 0.478667
v -0.472642 0.508735 0.480279
v -0.492570 0.508735 0.460351
v -0.492570 1.474424 0.460351
v -0.490958 1.472812 0.478667
v -0.472642 1.474424 0.480279
v -0.492570 1.454496 0.480279
vt 0.635769 0.677848
vt 0.636322 0.977648
vt 0.339480 0.977990
vt 0.338753 0.682428
vt 0.629694 0.056604
vt 0.630423 0.352181
vt 0.333405 0.356762
vt 0.332852 0.056948
vt 0.023904 0.372192
vt 0.319465 0.371472
vt 0.324045 0.668486
vt 0.024237 0.669036
vt 0.635845 0.663771
vt 0.338122 0.668563
vt 0.333330 0.370840
vt 0.631053 0.366047
vt 0.945278 0.662420
vt 0.649711 0.663141
vt 0.645131 0.366123
vt 0.944943 0.365571
vt 0.643412 0.977901
vt 0.642789 0.984089
vt 0.636597 0.984706
vt 0.952191 0.662479
vt 0.951921 0.668545
vt 0.945747 0.669373
vt 0.959185 0.662855
vt 0.957910 0.669921
vt 0.630128 0.042695
vt 0.637196 0.043970
vt 0.635820 0.049960
vt 0.629752 0.049690
vt 0.945197 0.358481
vt 0.951385 0.359104
vt 0.952001 0.365296
vt 0.636647 0.056135
vt 0.009997 0.371757
vt 0.011272 0.364691
vt 0.017261 0.366067
vt 0.016991 0.372133
vt 0.325761 0.056695
vt 0.326385 0.050506
vt 0.332577 0.049890
vt 0.023435 0.365239
vt 0.023984 0.676127
vt 0.017795 0.675504
vt 0.017179 0.669311
vt 0.339422 0.984903
vt 0.333355 0.984634
vt 0.332527 0.978459
vt 0.339046 0.991897
vt 0.331979 0.990622
vt 0.649322 0.670139
vt 0.643164 0.669363
vt 0.642830 0.663304
vt 0.635956 0.670809
vt 0.642120 0.671377
vt 0.642781 0.677534
vt 0.637204 0.670809
vt 0.630586 0.359062
vt 0.636646 0.358728
vt 0.638091 0.364689
vt 0.637422 0.352570
vt 0.638092 0.365936
vt 0.638660 0.359771
vt 0.644817 0.359110
vt 0.326346 0.371308
vt 0.326011 0.365249
vt 0.331971 0.363803
vt 0.319853 0.364473
vt 0.333217 0.363801
vt 0.327053 0.363234
vt 0.326392 0.357076
vt 0.331755 0.682040
vt 0.332530 0.675882
vt 0.338590 0.675547
vt 0.331083 0.668674
vt 0.330516 0.674838
vt 0.324358 0.675499
vt 0.331084 0.669922
vt 0.958934 0.365290
vt 0.636603 0.991637
vt 0.332571 0.042957
vt 0.010247 0.669317
vt 0.983436 0.336558
vt 0.665748 0.336558
vt 0.665748 0.018870
vt 0.983436 0.018870
vn 0.0000 1.0000 0.0000
vn 0.0000 -1.0000 -0.0000
vn -1.0000 0.0000 0.0000
vn 0.0000 -0.0000 1.0000
vn 1.0000 0.0000 0.0000
vn 0.2517 0.9345 -0.2517
vn 0.9345 0.2517 -0.2517
vn 0.2517 0.2517 -0.9345
vn 0.2517 -0.2517 -0.9345
vn 0.9345 -0.2517 -0.2517
vn 0.2517 -0.9345 -0.2517
vn -0.2517 -0.2517 -0.9345
vn -0.2517 -0.9345 -0.2517
vn -0.9345 -0.2517 -0.2517
vn -0.9345 0.2517 -0.2517
vn -0.2517 0.9345 -0.2517
vn -0.2517 0.2517 -0.9345
vn 0.9345 0.2517 0.2517
vn 0.2517 0.9345 0.2517
vn 0.2517 0.2517 0.9345
vn 0.2517 -0.2517 0.9345
vn 0.2517 -0.9345 0.2517
vn 0.9345 -0.2517 0.2517
vn -0.2517 -0.2517 0.9345
vn -0.9345 -0.2517 0.2517
vn -0.2517 -0.9345 0.2517
vn -0.2517 0.9345 0.2517
vn -0.9345 0.2517 0.2517
vn -0.2517 0.2517 0.9345
vn 0.9239 0.0000 -0.3827
vn 0.3827 0.0000 -0.9239
vn 0.0000 0.3827 -0.9239
vn 0.0000 0.9239 -0.3827
vn 0.3827 0.9239 0.0000
vn 0.9239 0.3827 0.0000
vn 0.0000 -0.9239 -0.3827
vn 0.0000 -0.3827 -0.9239
vn 0.9239 -0.3827 -0.0000
vn 0.3827 -0.9239 -0.0000
vn -0.9239 0.0000 -0.3827
vn -0.3827 0.0000 -0.9239
vn -0.3827 -0.9239 -0.0000
vn -0.9239 -0.3827 -0.0000
vn -0.9239 0.3827 0.0000
vn -0.3827 0.9239 0.0000
vn 0.3827 -0.0000 0.9239
vn 0.9239 -0.0000 0.3827
vn 0.0000 0.9239 0.3827
vn 0.0000 0.3827 0.9239
vn 0.0000 -0.3827 0.9239
vn 0.0000 -0.9239 0.3827
vn -0.3827 -0.0000 0.9239
vn -0.9239 -0.0000 0.3827
vn 0.0000 0.0000 -1.0000
usemtl Y_cube_green
s off
f 117/117/34 118/118/34 119/119/34 120/120/34
f 121/121/35 122/122/35 123/123/35 124/124/35
f 125/125/36 126/126/36 127/127/36 128/128/36
f 129/129/37 130/130/37 131/131/37 132/132/37
f 133/133/38 134/134/38 135/135/38 136/136/38
f 118/118/39 137/137/39 138/138/39 139/139/39
f 133/133/40 140/140/40 138/141/40 137/142/40
f 141/143/41 139/144/41 138/141/41 140/140/41
f 142/145/42 143/146/42 144/147/42 145/148/42
f 136/136/43 146/149/43 144/150/43 143/151/43
f 121/121/44 145/148/44 144/147/44 146/152/44
f 147/153/45 148/154/45 149/155/45 150/156/45
f 124/124/46 151/157/46 149/158/46 148/159/46
f 125/125/47 150/156/47 149/155/47 151/160/47
f 128/128/48 152/161/48 153/162/48 154/163/48
f 119/119/49 155/164/49 153/165/49 152/166/49
f 156/167/50 154/168/50 153/165/50 155/164/50
f 134/134/51 157/169/51 158/170/51 159/171/51
f 117/117/52 160/172/52 158/173/52 157/174/52
f 129/129/53 159/171/53 158/170/53 160/175/53
f 132/132/54 161/176/54 162/177/54 163/178/54
f 122/122/55 164/179/55 162/177/55 161/176/55
f 135/135/56 163/180/56 162/181/56 164/182/56
f 131/131/57 165/183/57 166/184/57 167/185/57
f 126/126/58 168/186/58 166/184/58 165/183/58
f 123/123/59 167/187/59 166/188/59 168/189/59
f 120/120/60 169/190/60 170/191/60 171/192/60
f 127/127/61 172/193/61 170/194/61 169/195/61
f 130/130/62 171/192/62 170/191/62 172/196/62
f 133/133/63 136/136/63 143/151/63 140/140/63
f 140/140/64 143/151/64 142/197/64 141/143/64
f 141/198/65 156/167/65 155/164/65 139/139/65
f 139/139/66 155/164/66 119/119/66 118/118/66
f 118/118/67 117/117/67 157/174/67 137/137/67
f 137/142/68 157/169/68 134/134/68 133/133/68
f 121/121/69 124/124/69 148/159/69 145/148/69
f 145/148/70 148/159/70 147/199/70 142/145/70
f 136/136/71 135/135/71 164/182/71 146/149/71
f 146/152/72 164/179/72 122/122/72 121/121/72
f 125/125/73 128/128/73 154/163/73 150/156/73
f 150/156/74 154/163/74 156/200/74 147/153/74
f 124/124/75 123/123/75 168/189/75 151/157/75
f 151/160/76 168/186/76 126/126/76 125/125/76
f 128/128/77 127/127/77 169/195/77 152/161/77
f 152/166/78 169/190/78 120/120/78 119/119/78
f 129/129/79 132/132/79 163/180/79 159/171/79
f 159/171/80 163/180/80 135/135/80 134/134/80
f 117/117/81 120/120/81 171/192/81 160/172/81
f 160/172/82 171/192/82 130/130/82 129/129/82
f 132/132/83 131/131/83 167/187/83 161/176/83
f 161/176/84 167/187/84 123/123/84 122/122/84
f 131/131/85 130/130/85 172/193/85 165/183/85
f 165/183/86 172/193/86 127/127/86 126/126/86
f 141/201/87 142/202/87 147/203/87 156/204/87
o cubex
v 1.435389 0.500481 0.460351
v 1.435388 0.500481 -0.465482
v 0.509555 0.500481 -0.465482
v 0.509555 0.500481 0.460351
v 1.435388 -0.481716 -0.465482
v 1.435388 -0.481716 0.460351
v 0.509555 -0.481716 0.460351
v 0.509555 -0.481716 -0.465482
v 0.481373 -0.453534 -0.465482
v 0.481373 -0.453534 0.460351
v 0.481373 0.472299 0.460351
v 0.481373 0.472299 -0.465482
v 1.435388 0.472299 0.488533
v 0.509555 0.472299 0.488533
v 0.509555 -0.453534 0.488533
v 1.435388 -0.453534 0.488533
v 1.463570 0.472299 -0.465482
v 1.463570 0.472299 0.460351
v 1.463570 -0.453534 0.460351
v 1.463570 -0.453534 -0.465482
v 1.455316 0.492227 -0.465482
v 1.453704 0.490615 -0.483798
v 1.435388 0.492227 -0.485410
v 1.455316 0.472299 -0.485410
v 1.435388 0.472299 -0.493664
v 1.435388 -0.453534 -0.493664
v 1.455316 -0.453534 -0.485410
v 1.453704 -0.471850 -0.483798
v 1.435388 -0.473462 -0.485410
v 1.455316 -0.473462 -0.465482
v 0.509555 -0.453534 -0.493664
v 0.509555 -0.473462 -0.485410
v 0.491239 -0.471850 -0.483798
v 0.489627 -0.453534 -0.485410
v 0.489627 -0.473462 -0.465482
v 0.489628 0.492227 -0.465482
v 0.491239 0.490615 -0.483798
v 0.489628 0.472299 -0.485410
v 0.509555 0.492227 -0.485410
v 0.509555 0.472299 -0.493664
v 1.455316 0.492226 0.460351
v 1.453704 0.490615 0.478667
v 1.455316 0.472299 0.480279
v 1.435389 0.492226 0.480279
v 1.435388 -0.473462 0.480279
v 1.453704 -0.471850 0.478667
v 1.455316 -0.453534 0.480279
v 1.455316 -0.473462 0.460351
v 0.489627 -0.453534 0.480279
v 0.491239 -0.471850 0.478667
v 0.509555 -0.473462 0.480279
v 0.489627 -0.473462 0.460351
v 0.489627 0.492227 0.460351
v 0.491239 0.490615 0.478667
v 0.509555 0.492227 0.480279
v 0.489627 0.472299 0.480279
vt 0.635769 0.677848
vt 0.636322 0.977648
vt 0.339480 0.977990
vt 0.338753 0.682428
vt 0.629694 0.056604
vt 0.630423 0.352181
vt 0.333405 0.356762
vt 0.332852 0.056948
vt 0.023904 0.372192
vt 0.319465 0.371472
vt 0.324045 0.668486
vt 0.024237 0.669036
vt 0.635845 0.663771
vt 0.338122 0.668563
vt 0.333330 0.370840
vt 0.631053 0.366047
vt 0.945278 0.662420
vt 0.649711 0.663141
vt 0.645131 0.366123
vt 0.944943 0.365571
vt 0.643412 0.977901
vt 0.642789 0.984089
vt 0.636597 0.984706
vt 0.952191 0.662479
vt 0.951921 0.668545
vt 0.945747 0.669373
vt 0.959185 0.662855
vt 0.957910 0.669921
vt 0.630128 0.042695
vt 0.637196 0.043970
vt 0.635820 0.049960
vt 0.629752 0.049690
vt 0.945197 0.358481
vt 0.951385 0.359104
vt 0.952001 0.365296
vt 0.636647 0.056135
vt 0.009997 0.371757
vt 0.011272 0.364691
vt 0.017261 0.366067
vt 0.016991 0.372133
vt 0.325761 0.056695
vt 0.326385 0.050506
vt 0.332577 0.049890
vt 0.023435 0.365239
vt 0.023984 0.676127
vt 0.017795 0.675504
vt 0.017179 0.669311
vt 0.339422 0.984903
vt 0.333355 0.984634
vt 0.332527 0.978459
vt 0.339046 0.991897
vt 0.331979 0.990622
vt 0.649322 0.670139
vt 0.643164 0.669363
vt 0.642830 0.663304
vt 0.635956 0.670809
vt 0.642120 0.671377
vt 0.642781 0.677534
vt 0.637204 0.670809
vt 0.630586 0.359062
vt 0.636646 0.358728
vt 0.638091 0.364689
vt 0.637422 0.352570
vt 0.638092 0.365936
vt 0.638660 0.359771
vt 0.644817 0.359110
vt 0.326346 0.371308
vt 0.326011 0.365249
vt 0.331971 0.363803
vt 0.319853 0.364473
vt 0.333217 0.363801
vt 0.327053 0.363234
vt 0.326392 0.357076
vt 0.331755 0.682040
vt 0.332530 0.675882
vt 0.338590 0.675547
vt 0.331083 0.668674
vt 0.330516 0.674838
vt 0.324358 0.675499
vt 0.331084 0.669922
vt 0.958934 0.365290
vt 0.636603 0.991637
vt 0.332571 0.042957
vt 0.010247 0.669317
vt 0.983436 0.336558
vt 0.665748 0.336558
vt 0.665748 0.018870
vt 0.983436 0.018870
vn 0.0000 1.0000 0.0000
vn 0.0000 -1.0000 -0.0000
vn -1.0000 0.0000 0.0000
vn 0.0000 -0.0000 1.0000
vn 1.0000 0.0000 0.0000
vn 0.2517 0.9345 -0.2517
vn 0.9345 0.2517 -0.2517
vn 0.2517 0.2517 -0.9345
vn 0.2517 -0.2517 -0.9345
vn 0.9345 -0.2517 -0.2517
vn 0.2517 -0.9345 -0.2517
vn -0.2517 -0.2517 -0.9345
vn -0.2517 -0.9345 -0.2517
vn -0.9345 -0.2517 -0.2517
vn -0.9345 0.2517 -0.2517
vn -0.2517 0.9345 -0.2517
vn -0.2517 0.2517 -0.9345
vn 0.9345 0.2517 0.2517
vn 0.2517 0.9345 0.2517
vn 0.2517 0.2517 0.9345
vn 0.2517 -0.2517 0.9345
vn 0.2517 -0.9345 0.2517
vn 0.9345 -0.2517 0.2517
vn -0.2517 -0.2517 0.9345
vn -0.9345 -0.2517 0.2517
vn -0.2517 -0.9345 0.2517
vn -0.2517 0.9345 0.2517
vn -0.9345 0.2517 0.2517
vn -0.2517 0.2517 0.9345
vn 0.9239 0.0000 -0.3827
vn 0.3827 0.0000 -0.9239
vn 0.0000 0.3827 -0.9239
vn 0.0000 0.9239 -0.3827
vn 0.3827 0.9239 0.0000
vn 0.9239 0.3827 0.0000
vn 0.0000 -0.9239 -0.3827
vn 0.0000 -0.3827 -0.9239
vn 0.9239 -0.3827 -0.0000
vn 0.3827 -0.9239 -0.0000
vn -0.9239 0.0000 -0.3827
vn -0.3827 0.0000 -0.9239
vn -0.3827 -0.9239 -0.0000
vn -0.9239 -0.3827 -0.0000
vn -0.9239 0.3827 -0.0000
vn -0.3827 0.9239 -0.0000
vn 0.3827 -0.0000 0.9239
vn 0.9239 -0.0000 0.3827
vn 0.0000 0.9239 0.3827
vn 0.0000 0.3827 0.9239
vn 0.0000 -0.3827 0.9239
vn 0.0000 -0.9239 0.3827
vn -0.3827 -0.0000 0.9239
vn -0.9239 -0.0000 0.3827
vn 0.0000 0.0000 -1.0000
usemtl X_cube_red
s off
f 173/205/88 174/206/88 175/207/88 176/208/88
f 177/209/89 178/210/89 179/211/89 180/212/89
f 181/213/90 182/214/90 183/215/90 184/216/90
f 185/217/91 186/218/91 187/219/91 188/220/91
f 189/221/92 190/222/92 191/223/92 192/224/92
f 174/206/93 193/225/93 194/226/93 195/227/93
f 189/221/94 196/228/94 194/229/94 193/230/94
f 197/231/95 195/232/95 194/229/95 196/228/95
f 198/233/96 199/234/96 200/235/96 201/236/96
f 192/224/97 202/237/97 200/238/97 199/239/97
f 177/209/98 201/236/98 200/235/98 202/240/98
f 203/241/99 204/242/99 205/243/99 206/244/99
f 180/212/100 207/245/100 205/246/100 204/247/100
f 181/213/101 206/244/101 205/243/101 207/248/101
f 184/216/102 208/249/102 209/250/102 210/251/102
f 175/207/103 211/252/103 209/253/103 208/254/103
f 212/255/104 210/256/104 209/253/104 211/252/104
f 190/222/105 213/257/105 214/258/105 215/259/105
f 173/205/106 216/260/106 214/261/106 213/262/106
f 185/217/107 215/259/107 214/258/107 216/263/107
f 188/220/108 217/264/108 218/265/108 219/266/108
f 178/210/109 220/267/109 218/265/109 217/264/109
f 191/223/110 219/268/110 218/269/110 220/270/110
f 187/219/111 221/271/111 222/272/111 223/273/111
f 182/214/112 224/274/112 222/272/112 221/271/112
f 179/211/113 223/275/113 222/276/113 224/277/113
f 176/208/114 225/278/114 226/279/114 227/280/114
f 183/215/115 228/281/115 226/282/115 225/283/115
f 186/218/116 227/280/116 226/279/116 228/284/116
f 189/221/117 192/224/117 199/239/117 196/228/117
f 196/228/118 199/239/118 198/285/118 197/231/118
f 197/286/119 212/255/119 211/252/119 195/227/119
f 195/227/120 211/252/120 175/207/120 174/206/120
f 174/206/121 173/205/121 213/262/121 193/225/121
f 193/230/122 213/257/122 190/222/122 189/221/122
f 177/209/123 180/212/123 204/247/123 201/236/123
f 201/236/124 204/247/124 203/287/124 198/233/124
f 192/224/125 191/223/125 220/270/125 202/237/125
f 202/240/126 220/267/126 178/210/126 177/209/126
f 181/213/127 184/216/127 210/251/127 206/244/127
f 206/244/128 210/251/128 212/288/128 203/241/128
f 180/212/129 179/211/129 224/277/129 207/245/129
f 207/248/130 224/274/130 182/214/130 181/213/130
f 184/216/131 183/215/131 225/283/131 208/249/131
f 208/254/132 225/278/132 176/208/132 175/207/132
f 185/217/133 188/220/133 219/268/133 215/259/133
f 215/259/134 219/268/134 191/223/134 190/222/134
f 173/205/135 176/208/135 227/280/135 216/260/135
f 216/260/136 227/280/136 186/218/136 185/217/136
f 188/220/137 187/219/137 223/275/137 217/264/137
f 217/264/138 223/275/138 179/211/138 178/210/138
f 187/219/139 186/218/139 228/281/139 221/271/139
f 221/271/140 228/281/140 183/215/140 182/214/140
f 197/289/141 198/290/141 203/291/141 212/292/141
o cubez
v 0.453192 0.500481 1.442548
v 0.453191 0.500481 0.516715
v -0.472642 0.500481 0.516715
v -0.472642 0.500481 1.442548
v 0.453191 -0.481716 0.516715
v 0.453191 -0.481716 1.442548
v -0.472642 -0.481716 1.442548
v -0.472642 -0.481716 0.516715
v -0.500824 -0.453534 0.516715
v -0.500824 -0.453534 1.442548
v -0.500824 0.472299 1.442548
v -0.500824 0.472299 0.516715
v 0.453192 0.472299 1.470730
v -0.472642 0.472299 1.470730
v -0.472642 -0.453534 1.470730
v 0.453191 -0.453535 1.470730
v 0.481373 0.472299 0.516715
v 0.481373 0.472299 1.442548
v 0.481373 -0.453535 1.442548
v 0.481373 -0.453534 0.516715
v 0.473119 0.492227 0.516715
v 0.471507 0.490615 0.498399
v 0.453191 0.492227 0.496787
v 0.473119 0.472299 0.496787
v 0.453191 0.472299 0.488533
v 0.453191 -0.453534 0.488533
v 0.473119 -0.453534 0.496787
v 0.471507 -0.471850 0.498399
v 0.453191 -0.473462 0.496787
v 0.473119 -0.473462 0.516715
v -0.472642 -0.453534 0.488533
v -0.472642 -0.473462 0.496787
v -0.490958 -0.471850 0.498399
v -0.492570 -0.453534 0.496787
v -0.492570 -0.473462 0.516715
v -0.492570 0.492227 0.516715
v -0.490958 0.490615 0.498399
v -0.492570 0.472299 0.496787
v -0.472642 0.492227 0.496787
v -0.472642 0.472299 0.488533
v 0.473119 0.492227 1.442548
v 0.471507 0.490615 1.460864
v 0.473119 0.472299 1.462476
v 0.453192 0.492227 1.462476
v 0.453191 -0.473462 1.462476
v 0.471507 -0.471850 1.460864
v 0.473119 -0.453535 1.462476
v 0.473119 -0.473462 1.442548
v -0.492570 -0.453534 1.462476
v -0.490958 -0.471850 1.460864
v -0.472642 -0.473462 1.462476
v -0.492570 -0.473462 1.442548
v -0.492570 0.492227 1.442548
v -0.490958 0.490615 1.460864
v -0.472642 0.492227 1.462476
v -0.492570 0.472299 1.462476
vt 0.635769 0.677848
vt 0.636322 0.977648
vt 0.339480 0.977990
vt 0.338753 0.682428
vt 0.629694 0.056604
vt 0.630423 0.352181
vt 0.333405 0.356762
vt 0.332852 0.056948
vt 0.023904 0.372192
vt 0.319465 0.371472
vt 0.324045 0.668486
vt 0.024237 0.669036
vt 0.635845 0.663771
vt 0.338122 0.668563
vt 0.333330 0.370840
vt 0.631053 0.366047
vt 0.945278 0.662420
vt 0.649711 0.663141
vt 0.645131 0.366123
vt 0.944943 0.365571
vt 0.643412 0.977901
vt 0.642789 0.984089
vt 0.636597 0.984706
vt 0.952191 0.662479
vt 0.951921 0.668545
vt 0.945747 0.669373
vt 0.959185 0.662855
vt 0.957910 0.669921
vt 0.630128 0.042695
vt 0.637196 0.043970
vt 0.635820 0.049960
vt 0.629752 0.049690
vt 0.945197 0.358481
vt 0.951385 0.359104
vt 0.952001 0.365296
vt 0.636647 0.056135
vt 0.009997 0.371757
vt 0.011272 0.364691
vt 0.017261 0.366067
vt 0.016991 0.372133
vt 0.325761 0.056695
vt 0.326385 0.050506
vt 0.332577 0.049890
vt 0.023435 0.365239
vt 0.023984 0.676127
vt 0.017795 0.675504
vt 0.017179 0.669311
vt 0.339422 0.984903
vt 0.333355 0.984634
vt 0.332527 0.978459
vt 0.339046 0.991897
vt 0.331979 0.990622
vt 0.649322 0.670139
vt 0.643164 0.669363
vt 0.642830 0.663304
vt 0.635956 0.670809
vt 0.642120 0.671377
vt 0.642781 0.677534
vt 0.637204 0.670809
vt 0.630586 0.359062
vt 0.636646 0.358728
vt 0.638091 0.364689
vt 0.637422 0.352570
vt 0.638092 0.365936
vt 0.638660 0.359771
vt 0.644817 0.359110
vt 0.326346 0.371308
vt 0.326011 0.365249
vt 0.331971 0.363803
vt 0.319853 0.364473
vt 0.333217 0.363801
vt 0.327053 0.363234
vt 0.326392 0.357076
vt 0.331755 0.682040
vt 0.332530 0.675882
vt 0.338590 0.675547
vt 0.331083 0.668674
vt 0.330516 0.674838
vt 0.324358 0.675499
vt 0.331084 0.669922
vt 0.958934 0.365290
vt 0.636603 0.991637
vt 0.332571 0.042957
vt 0.010247 0.669317
vt 0.983436 0.336558
vt 0.665748 0.336558
vt 0.665748 0.018870
vt 0.983436 0.018870
vn 0.0000 1.0000 0.0000
vn 0.0000 -1.0000 -0.0000
vn -1.0000 0.0000 0.0000
vn 0.0000 -0.0000 1.0000
vn 1.0000 0.0000 0.0000
vn 0.2517 0.9345 -0.2517
vn 0.9345 0.2517 -0.2517
vn 0.2517 0.2517 -0.9345
vn 0.2517 -0.2517 -0.9345
vn 0.9345 -0.2517 -0.2517
vn 0.2517 -0.9345 -0.2517
vn -0.2517 -0.2517 -0.9345
vn -0.2517 -0.9345 -0.2517
vn -0.9345 -0.2517 -0.2517
vn -0.9345 0.2517 -0.2517
vn -0.2517 0.9345 -0.2517
vn -0.2517 0.2517 -0.9345
vn 0.9345 0.2517 0.2517
vn 0.2517 0.9345 0.2517
vn 0.2517 0.2517 0.9345
vn 0.2517 -0.2517 0.9345
vn 0.2517 -0.9345 0.2517
vn 0.9345 -0.2517 0.2517
vn -0.2517 -0.2517 0.9345
vn -0.9345 -0.2517 0.2517
vn -0.2517 -0.9345 0.2517
vn -0.2517 0.9345 0.2517
vn -0.9345 0.2517 0.2517
vn -0.2517 0.2517 0.9345
vn 0.9239 0.0000 -0.3827
vn 0.3827 0.0000 -0.9239
vn 0.0000 0.3827 -0.9239
vn 0.0000 0.9239 -0.3827
vn 0.3827 0.9239 -0.0000
vn 0.9239 0.3827 0.0000
vn 0.0000 -0.9239 -0.3827
vn 0.0000 -0.3827 -0.9239
vn 0.9239 -0.3827 -0.0000
vn 0.3827 -0.9239 -0.0000
vn -0.9239 0.0000 -0.3827
vn -0.3827 0.0000 -0.9239
vn -0.3827 -0.9239 -0.0000
vn -0.9239 -0.3827 -0.0000
vn -0.9239 0.3827 0.0000
vn -0.3827 0.9239 0.0000
vn 0.3827 -0.0000 0.9239
vn 0.9239 -0.0000 0.3827
vn 0.0000 0.9239 0.3827
vn 0.0000 0.3827 0.9239
vn -0.0000 -0.3827 0.9239
vn 0.0000 -0.9239 0.3827
vn -0.3827 -0.0000 0.9239
vn -0.9239 -0.0000 0.3827
vn 0.0000 0.0000 -1.0000
usemtl Z_axis_blue
s off
f 229/293/142 230/294/142 231/295/142 232/296/142
f 233/297/143 234/298/143 235/299/143 236/300/143
f 237/301/144 238/302/144 239/303/144 240/304/144
f 241/305/145 242/306/145 243/307/145 244/308/145
f 245/309/146 246/310/146 247/311/146 248/312/146
f 230/294/147 249/313/147 250/314/147 251/315/147
f 245/309/148 252/316/148 250/317/148 249/318/148
f 253/319/149 251/320/149 250/317/149 252/316/149
f 254/321/150 255/322/150 256/323/150 257/324/150
f 248/312/151 258/325/151 256/326/151 255/327/151
f 233/297/152 257/324/152 256/323/152 258/328/152
f 259/329/153 260/330/153 261/331/153 262/332/153
f 236/300/154 263/333/154 261/334/154 260/335/154
f 237/301/155 262/332/155 261/331/155 263/336/155
f 240/304/156 264/337/156 265/338/156 266/339/156
f 231/295/157 267/340/157 265/341/157 264/342/157
f 268/343/158 266/344/158 265/341/158 267/340/158
f 246/310/159 269/345/159 270/346/159 271/347/159
f 229/293/160 272/348/160 270/349/160 269/350/160
f 241/305/161 271/347/161 270/346/161 272/351/161
f 244/308/162 273/352/162 274/353/162 275/354/162
f 234/298/163 276/355/163 274/353/163 273/352/163
f 247/311/164 275/356/164 274/357/164 276/358/164
f 243/307/165 277/359/165 278/360/165 279/361/165
f 238/302/166 280/362/166 278/360/166 277/359/166
f 235/299/167 279/363/167 278/364/167 280/365/167
f 232/296/168 281/366/168 282/367/168 283/368/168
f 239/303/169 284/369/169 282/370/169 281/371/169
f 242/306/170 283/368/170 282/367/170 284/372/170
f 245/309/171 248/312/171 255/327/171 252/316/171
f 252/316/172 255/327/172 254/373/172 253/319/172
f 253/374/173 268/343/173 267/340/173 251/315/173
f 251/315/174 267/340/174 231/295/174 230/294/174
f 230/294/175 229/293/175 269/350/175 249/313/175
f 249/318/176 269/345/176 246/310/176 245/309/176
f 233/297/177 236/300/177 260/335/177 257/324/177
f 257/324/178 260/335/178 259/375/178 254/321/178
f 248/312/179 247/311/179 276/358/179 258/325/179
f 258/328/180 276/355/180 234/298/180 233/297/180
f 237/301/181 240/304/181 266/339/181 262/332/181
f 262/332/182 266/339/182 268/376/182 259/329/182
f 236/300/183 235/299/183 280/365/183 263/333/183
f 263/336/184 280/362/184 238/302/184 237/301/184
f 240/304/185 239/303/185 281/371/185 264/337/185
f 264/342/186 281/366/186 232/296/186 231/295/186
f 241/305/187 244/308/187 275/356/187 271/347/187
f 271/347/188 275/356/188 247/311/188 246/310/188
f 229/293/189 232/296/189 283/368/189 272/348/189
f 272/348/190 283/368/190 242/306/190 241/305/190
f 244/308/191 243/307/191 279/363/191 273/352/191
f 273/352/192 279/363/192 235/299/192 234/298/192
f 243/307/193 242/306/193 284/369/193 277/359/193
f 277/359/194 284/369/194 239/303/194 238/302/194
f 253/377/195 254/378/195 259/379/195 268/380/195
o cube_center
v 0.453192 0.500481 0.460351
v 0.453191 0.500481 -0.465482
v -0.472642 0.500481 -0.465482
v -0.472642 0.500481 0.460351
v 0.453191 -0.481716 -0.465482
v 0.453191 -0.481716 0.460351
v -0.472642 -0.481716 0.460351
v -0.472642 -0.481716 -0.465482
v -0.500824 -0.453534 -0.465482
v -0.500824 -0.453534 0.460351
v -0.500824 0.472299 0.460351
v -0.500824 0.472299 -0.465482
v 0.453192 0.472299 0.488533
v -0.472642 0.472299 0.488533
v -0.472642 -0.453534 0.488533
v 0.453191 -0.453535 0.488533
v 0.481373 0.472299 -0.465482
v 0.481373 0.472299 0.460351
v 0.481373 -0.453535 0.460351
v 0.481373 -0.453534 -0.465482
v 0.473119 0.492227 -0.465482
v 0.471507 0.490615 -0.483798
v 0.453191 0.492227 -0.485410
v 0.473119 0.472299 -0.485410
v 0.453191 0.472299 -0.493664
v 0.453191 -0.453534 -0.493664
v 0.473119 -0.453534 -0.485410
v 0.471507 -0.471850 -0.483798
v 0.453191 -0.473462 -0.485410
v 0.473119 -0.473462 -0.465482
v -0.472642 -0.453534 -0.493664
v -0.472642 -0.473462 -0.485410
v -0.490958 -0.471850 -0.483798
v -0.492570 -0.453534 -0.485410
v -0.492570 -0.473462 -0.465482
v -0.492570 0.492227 -0.465482
v -0.490958 0.490615 -0.483798
v -0.492570 0.472299 -0.485410
v -0.472642 0.492227 -0.485410
v -0.472642 0.472299 -0.493664
v 0.473119 0.492227 0.460351
v 0.471507 0.490615 0.478667
v 0.473119 0.472299 0.480279
v 0.453192 0.492227 0.480279
v 0.453191 -0.473462 0.480279
v 0.471507 -0.471850 0.478667
v 0.473119 -0.453535 0.480279
v 0.473119 -0.473462 0.460351
v -0.492570 -0.453534 0.480279
v -0.490958 -0.471850 0.478667
v -0.472642 -0.473462 0.480279
v -0.492570 -0.473462 0.460351
v -0.492570 0.492227 0.460351
v -0.490958 0.490615 0.478667
v -0.472642 0.492227 0.480279
v -0.492570 0.472299 0.480279
vt 0.635769 0.677848
vt 0.636322 0.977648
vt 0.339480 0.977990
vt 0.338753 0.682428
vt 0.629694 0.056604
vt 0.630423 0.352181
vt 0.333405 0.356762
vt 0.332852 0.056948
vt 0.023904 0.372192
vt 0.319465 0.371472
vt 0.324045 0.668486
vt 0.024237 0.669036
vt 0.635845 0.663771
vt 0.338122 0.668563
vt 0.333330 0.370840
vt 0.631053 0.366047
vt 0.945278 0.662420
vt 0.649711 0.663141
vt 0.645131 0.366123
vt 0.944943 0.365571
vt 0.643412 0.977901
vt 0.642789 0.984089
vt 0.636597 0.984706
vt 0.952191 0.662479
vt 0.951921 0.668545
vt 0.945747 0.669373
vt 0.959185 0.662855
vt 0.957910 0.669921
vt 0.630128 0.042695
vt 0.637196 0.043970
vt 0.635820 0.049960
vt 0.629752 0.049690
vt 0.945197 0.358481
vt 0.951385 0.359104
vt 0.952001 0.365296
vt 0.636647 0.056135
vt 0.009997 0.371757
vt 0.011272 0.364691
vt 0.017261 0.366067
vt 0.016991 0.372133
vt 0.325761 0.056695
vt 0.326385 0.050506
vt 0.332577 0.049890
vt 0.023435 0.365239
vt 0.023984 0.676127
vt 0.017795 0.675504
vt 0.017179 0.669311
vt 0.339422 0.984903
vt 0.333355 0.984634
vt 0.332527 0.978459
vt 0.339046 0.991897
vt 0.331979 0.990622
vt 0.649322 0.670139
vt 0.643164 0.669363
vt 0.642830 0.663304
vt 0.635956 0.670809
vt 0.642120 0.671377
vt 0.642781 0.677534
vt 0.637204 0.670809
vt 0.630586 0.359062
vt 0.636646 0.358728
vt 0.638091 0.364689
vt 0.637422 0.352570
vt 0.638092 0.365936
vt 0.638660 0.359771
vt 0.644817 0.359110
vt 0.326346 0.371308
vt 0.326011 0.365249
vt 0.331971 0.363803
vt 0.319853 0.364473
vt 0.333217 0.363801
vt 0.327053 0.363234
vt 0.326392 0.357076
vt 0.331755 0.682040
vt 0.332530 0.675882
vt 0.338590 0.675547
vt 0.331083 0.668674
vt 0.330516 0.674838
vt 0.324358 0.675499
vt 0.331084 0.669922
vt 0.958934 0.365290
vt 0.636603 0.991637
vt 0.332571 0.042957
vt 0.010247 0.669317
vt 0.983436 0.336558
vt 0.665748 0.336558
vt 0.665748 0.018870
vt 0.983436 0.018870
vn 0.0000 1.0000 0.0000
vn 0.0000 -1.0000 -0.0000
vn -1.0000 0.0000 0.0000
vn -0.0000 -0.0000 1.0000
vn 1.0000 0.0000 0.0000
vn 0.2517 0.9345 -0.2517
vn 0.9345 0.2517 -0.2517
vn 0.2517 0.2517 -0.9345
vn 0.2517 -0.2517 -0.9345
vn 0.9345 -0.2517 -0.2517
vn 0.2517 -0.9345 -0.2517
vn -0.2517 -0.2517 -0.9345
vn -0.2517 -0.9345 -0.2517
vn -0.9345 -0.2517 -0.2517
vn -0.9345 0.2517 -0.2517
vn -0.2517 0.9345 -0.2517
vn -0.2517 0.2517 -0.9345
vn 0.9345 0.2517 0.2517
vn 0.2517 0.9345 0.2517
vn 0.2517 0.2517 0.9345
vn 0.2517 -0.2517 0.9345
vn 0.2517 -0.9345 0.2517
vn 0.9345 -0.2517 0.2517
vn -0.2517 -0.2517 0.9345
vn -0.9345 -0.2517 0.2517
vn -0.2517 -0.9345 0.2517
vn -0.2517 0.9345 0.2517
vn -0.9345 0.2517 0.2517
vn -0.2517 0.2517 0.9345
vn 0.9239 0.0000 -0.3827
vn 0.3827 0.0000 -0.9239
vn 0.0000 0.3827 -0.9239
vn 0.0000 0.9239 -0.3827
vn 0.3827 0.9239 -0.0000
vn 0.9239 0.3827 0.0000
vn 0.0000 -0.9239 -0.3827
vn 0.0000 -0.3827 -0.9239
vn 0.9239 -0.3827 -0.0000
vn 0.3827 -0.9239 -0.0000
vn -0.9239 0.0000 -0.3827
vn -0.3827 0.0000 -0.9239
vn -0.3827 -0.9239 -0.0000
vn -0.9239 -0.3827 -0.0000
vn -0.9239 0.3827 0.0000
vn -0.3827 0.9239 0.0000
vn 0.3827 -0.0000 0.9239
vn 0.9239 -0.0000 0.3827
vn 0.0000 0.9239 0.3827
vn 0.0000 0.3827 0.9239
vn -0.0000 -0.3827 0.9239
vn 0.0000 -0.9239 0.3827
vn -0.3827 -0.0000 0.9239
vn -0.9239 -0.0000 0.3827
vn 0.0000 0.0000 -1.0000
usemtl Cube_white
s off
f 285/381/196 286/382/196 287/383/196 288/384/196
f 289/385/197 290/386/197 291/387/197 292/388/197
f 293/389/198 294/390/198 295/391/198 296/392/198
f 297/393/199 298/394/199 299/395/199 300/396/199
f 301/397/200 302/398/200 303/399/200 304/400/200
f 286/382/201 305/401/201 306/402/201 307/403/201
f 301/397/202 308/404/202 306/405/202 305/406/202
f 309/407/203 307/408/203 306/405/203 308/404/203
f 310/409/204 311/410/204 312/411/204 313/412/204
f 304/400/205 314/413/205 312/414/205 311/415/205
f 289/385/206 313/412/206 312/411/206 314/416/206
f 315/417/207 316/418/207 317/419/207 318/420/207
f 292/388/208 319/421/208 317/422/208 316/423/208
f 293/389/209 318/420/209 317/419/209 319/424/209
f 296/392/210 320/425/210 321/426/210 322/427/210
f 287/383/211 323/428/211 321/429/211 320/430/211
f 324/431/212 322/432/212 321/429/212 323/428/212
f 302/398/213 325/433/213 326/434/213 327/435/213
f 285/381/214 328/436/214 326/437/214 325/438/214
f 297/393/215 327/435/215 326/434/215 328/439/215
f 300/396/216 329/440/216 330/441/216 331/442/216
f 290/386/217 332/443/217 330/441/217 329/440/217
f 303/399/218 331/444/218 330/445/218 332/446/218
f 299/395/219 333/447/219 334/448/219 335/449/219
f 294/390/220 336/450/220 334/448/220 333/447/220
f 291/387/221 335/451/221 334/452/221 336/453/221
f 288/384/222 337/454/222 338/455/222 339/456/222
f 295/391/223 340/457/223 338/458/223 337/459/223
f 298/394/224 339/456/224 338/455/224 340/460/224
f 301/397/225 304/400/225 311/415/225 308/404/225
f 308/404/226 311/415/226 310/461/226 309/407/226
f 309/462/227 324/431/227 323/428/227 307/403/227
f 307/403/228 323/428/228 287/383/228 286/382/228
f 286/382/229 285/381/229 325/438/229 305/401/229
f 305/406/230 325/433/230 302/398/230 301/397/230
f 289/385/231 292/388/231 316/423/231 313/412/231
f 313/412/232 316/423/232 315/463/232 310/409/232
f 304/400/233 303/399/233 332/446/233 314/413/233
f 314/416/234 332/443/234 290/386/234 289/385/234
f 293/389/235 296/392/235 322/427/235 318/420/235
f 318/420/236 322/427/236 324/464/236 315/417/236
f 292/388/237 291/387/237 336/453/237 319/421/237
f 319/424/238 336/450/238 294/390/238 293/389/238
f 296/392/239 295/391/239 337/459/239 320/425/239
f 320/430/240 337/454/240 288/384/240 287/383/240
f 297/393/241 300/396/241 331/444/241 327/435/241
f 327/435/242 331/444/242 303/399/242 302/398/242
f 285/381/243 288/384/243 339/456/243 328/436/243
f 328/436/244 339/456/244 298/394/244 297/393/244
f 300/396/245 299/395/245 335/451/245 329/440/245
f 329/440/246 335/451/246 291/387/246 290/386/246
f 299/395/247 298/394/247 340/457/247 333/447/247
f 333/447/248 340/457/248 295/391/248 294/390/248
f 309/465/249 310/466/249 315/467/249 324/468/249
